name processed_emg_signals
nRows=57
nColumns=7
 
endheader
time	LGLTMED	LRF	LADDLONG	LST	LTA	LGM
0.0	0.0289568584199442	0.0392358404736886	0.1297987330432347	0.3663073660663014	0.1258640159487167	0.0283046874578528
0.001	0.0323636343035444	0.0345879489115488	0.1176824304784587	0.3474868860960849	0.1335076625782444	0.0378905012340161
0.002	0.0357516668499207	0.0299751148160523	0.1056338359647579	0.3286973871639408	0.141224825217795	0.0474542827792686
0.003	0.0391183441122079	0.0254004063461271	0.0936603664041081	0.3099460873516786	0.1490111886984529	0.0569898744148745
0.004	0.0424610685414383	0.020866852172376	0.081769332871509	0.2912400572466425	0.1568623540358251	0.0664911338044737
0.005	0.0457772611725803	0.0163774371680211	0.0699679293783554	0.2725862121597076	0.1647738447105969	0.0759519424340314
0.006	0.0490643658094818	0.0119350981827874	0.0582632219225401	0.2539913048715833	0.1727411130292101	0.0853662140861115
0.007	0.0523198531988934	0.0075427199100204	0.0466621378616785	0.2354619189260494	0.1807595465407985	0.0947279032917471
0.008	0.0555412251841941	0.0032031308565951	0.0351714556438527	0.217004462486774	0.188824474492223	0.1040310137439603
0.009000000000000001	0.0587260188301971	0.0010809005756677	0.0237977949281184	0.1986251627723612	0.1969311743075883	0.1132696066574521
0.01	0.0618718105107524	0.0053066698889371	0.0125476071235092	0.1803300610824706	0.2050748780816893	0.1224378090595722
0.011	0.0649762199514895	0.0094715401612648	0.0014271663717083	0.1621250084259678	0.2132507790784177	0.1315298219981906
0.012	0.0680369142201635	0.0135729455847821	0.0095574390058126	0.1440156617603634	0.2214540382260371	0.1405399286523296
0.013000000000000001	0.0710516116579657	0.0176083948645683	0.0204003145789492	0.1260074808504041	0.2296797906017853	0.1494625023317627
0.014	0.0740180857449923	0.0215754744733319	0.0310957673845937	0.108105725752517	0.2379231518987501	0.1582920143519305
0.015	0.0769341688938712	0.0254718517578678	0.041638312995556	0.0903154549305097	0.2461792248679067	0.1670230417709885
0.016	0.0797977561654104	0.0292952778935054	0.0520226820744932	0.0726415240061758	0.254443105727935	0.1756502749759881
0.017	0.0826068089007076	0.0330435906832289	0.0622438264072057	0.0550885851455782	0.2627098905349631	0.1841685251055907
0.018000000000000002	0.0853593582641331	0.0367147171984066	0.0722969244123371	0.0376610870778639	0.270974681503934	0.1925727312970556
0.019	0.0880535086921052	0.0403066762587452	0.0821773861268224	0.020363275738251	0.2792325932729392	0.2008579677455335
0.02	0.0906874412426232	0.0438175807496705	0.0918808576677136	0.0031991955216476	0.2874787591014431	0.2090194505641113
0.021	0.0932594168408906	0.0472456397760307	0.1014032251722283	0.013827308871353	0.2957083369930505	0.2170525444331284
0.022	0.0957677794163033	0.0505891606515739	0.1107406182188379	0.03071259001789	0.3039165157329687	0.2249527690274142
0.023	0.0982109589263112	0.053846550723969	0.1198894127330945	0.0474531948097291	0.3120985208300669	0.2327158052099481
0.024	0.100587474262611	0.0570163190355269	0.1288462333834959	0.0640458609696578	0.3202496203530987	0.2403375009803952
0.025	0.1028959360349104	0.0600970778201734	0.1376079554737676	0.0804875130748749	0.3283651306504459	0.2478138771668699
0.026000000000000002	0.1051350492281502	0.0630875438375268	0.1461717063394475	0.0967752581165306	0.3364404219422891	0.2551411328490647
0.027	0.1073036157288867	0.0659865395454575	0.1545348662575129	0.1129063806261624	0.344470923773686	0.2623156505006984
0.028	0.1094005367174123	0.0687929941126914	0.1626950688793579	0.1288783374007758	0.3524521303164714	0.2693340008388903
0.029	0.1114248149223072	0.0715059442732075	0.1706502011980507	0.1446887518590254	0.3603796055075242	0.2761929473674104
0.03	0.113375556734341	0.074124535024326	0.1783984030623842	0.1603354080612188	0.3682489880108216	0.2828894506000562
0.031	0.1152519741767442	0.0766480201703909	0.1859380662510368	0.175816244426135	0.3760559959908662	0.2894206719494517
0.032	0.1170533867286623	0.0790757627140725	0.1932678331211506	0.1911293471776165	0.3837964316856237	0.2957839772656236
0.033	0.118779222998699	0.0814072350974393	0.2003865948461001	0.2062729435539082	0.391466185767684	0.3019769400080226
0.034	0.1204290222454352	0.083642019295195	0.2072934892580932	0.2212453948123627	0.3990612414827538	0.3079973440339011
0.035	0.1220024357420299	0.0857798067626354	0.2139878983113448	0.236045189061923	0.4065776785548588	0.3138431859859638
0.036000000000000004	0.1234992279822696	0.0878203982410714	0.2204694451816025	0.2506709339554503	0.4140116768476554	0.3195126772628204
0.037	0.1249192777258759	0.0897637034236011	0.2267379910179093	0.2651213492734867	0.4213595197712855	0.3250042455574979
0.038	0.1262625788811637	0.0916097404841288	0.2327936313621607	0.2793952594306383	0.4286175974240817	0.3303165359520334
0.039	0.1275292412237268	0.0933586354726243	0.2386366922517287	0.2934915859351069	0.4357824094584339	0.3354484115596277
0.04	0.1287194909500992	0.0950106215794852	0.2442677260209683	0.3074093398313336	0.4428505676606256	0.3403989537091109
0.041	0.1298336710661143	0.0965660382719183	0.2496875068175768	0.3211476141549288	0.4498187982358843	0.3451674616697517
0.042	0.1308722416101568	0.0980253303050981	0.2548970258502178	0.3347055764284219	0.4566839437924844	0.3497534519176312
0.043000000000000003	0.1318357797123648	0.0993890466109681	0.2598974863844813	0.3480824612254724	0.4634429650224735	0.3541566569485138
0.044	0.1327249794915716	0.1006578390675178	0.264690298504205	0.3612775628303779	0.4700929420812102	0.3583770236458222
0.045	0.1335406517924929	0.1018324611513768	0.269277073655168	0.3742902280186009	0.4766310756726903	0.362414711215194
0.046	0.1342837237657336	0.1029137664766549	0.2736596189884917	0.3871198489829842	0.4830546878519701	0.3662700886996798
0.047	0.1349552382932877	0.1039027072229103	0.2778399315205348	0.3997658564290503	0.4893612225592786	0.3699437320916415
0.048	0.1355563532621732	0.1048003324552754	0.2818201921263251	0.4122277128615276	0.4955482459023807	0.3734364210597156
0.049	0.1360883406885953	0.1056077863396735	0.2856027593831166	0.4245049060828282	0.5016134462044297	0.3767491353109096
0.05	0.1365525856954368	0.1063263062564365	0.2891901632803368	0.4365969429229369	0.5075546338343004	0.3798830506096395
0.051000000000000004	0.1369505853456932	0.1069572208156339	0.2925850988116376	0.4485033432186305	0.5133697408355606	0.3828395344765404
0.052000000000000005	0.1372839473351359	0.1075019477776865	0.2957904194639322	0.4602236340586844	0.5190568203692598	0.3856201415902791
0.053	0.1375543885475578	0.107961991883023	0.298809130617796	0.4717573443102253	0.5246140459845633	0.3882266089152367
0.054	0.1377637334766172	0.1083389425945952	0.3016443828729957	0.4831039994400647	0.530039710729977	0.3906608505773538
0.055	0.1379139125182113	0.1086344717572436	0.3042994653122376	0.4942631166434141	0.5353322261164938	0.3929249525094259
0.056	0.1380069601374695	0.1088503311780096	0.3067777987158754	0.5052342002913032	0.5404901209426011	0.3950211668863109
